<?xml version="1.0" encoding="UTF-8"?>
<svg width="196px" height="60px" viewBox="0 0 196 60" version="1.1" xmlns="http://www.w3.org/2000/svg" xmlns:xlink="http://www.w3.org/1999/xlink">
    <!-- Generator: Sketch 59.1 (86144) - https://sketch.com -->
    <title>LOGO/aena-Brasil-bg-verde</title>
    <desc>Created with Sketch.</desc>
    <g id="LOGO/aena-Brasil-bg-verde" stroke="none" stroke-width="1" fill="none" fill-rule="evenodd">
        <g id="aena-Brasil-dark-bg" fill-rule="nonzero">
            <path d="M140.574993,37.8321904 C139.13278,37.8554684 137.690678,37.7794639 136.259348,37.6047388 C135.648067,37.5249311 135.383179,37.2934891 135.383179,36.6430571 L135.383179,19.3726908 C135.349096,19.1321989 135.422697,18.889007 135.585092,18.7055284 C135.747488,18.5220497 135.982867,18.4161471 136.230822,18.4149996 C137.62922,18.2717566 139.034492,18.2024893 140.440512,18.2074998 C144.650201,18.2074998 148.183407,19.2968736 148.183407,23.2114368 L148.183407,23.6104748 C148.252431,25.4284106 147.104249,27.0784368 145.351137,27.6806628 C147.170802,28.2897954 148.365724,29.9969957 148.289362,31.8785429 L148.289362,32.3374367 C148.305663,36.6909416 144.703179,37.8321904 140.574993,37.8321904 Z M145.80756,23.2114368 C145.80756,20.7214394 143.688452,20.20269 140.456812,20.20269 C139.556191,20.20269 138.578142,20.2545649 137.836454,20.2824976 L137.836454,26.7110003 L141.911662,26.7110003 C144.980293,26.7110003 145.803485,25.2585019 145.803485,23.6264363 L145.80756,23.2114368 Z M145.913516,31.8945044 C145.913516,30.1866216 145.037346,28.6024406 141.915737,28.6024406 L137.840529,28.6024406 L137.840529,35.7332504 C138.716699,35.7571926 139.666222,35.8370003 140.59537,35.8370003 C143.879987,35.8370003 145.917591,35.1346933 145.917591,32.3374367 L145.913516,31.8945044 Z M157.430054,25.1826847 C156.126599,25.1932971 154.853641,25.5700052 153.762366,26.2680681 L153.762366,37.1338739 C153.753861,37.4168499 153.521581,37.6442951 153.232589,37.6526233 L151.920372,37.6526233 C151.638042,37.6397619 151.416625,37.4106158 151.419122,37.1338739 L151.419122,23.9097533 C151.413614,23.7754163 151.463722,23.6445906 151.558087,23.5469305 C151.652453,23.4492704 151.783085,23.3930468 151.920372,23.3910039 L153.167386,23.3910039 C153.304673,23.3930468 153.435305,23.4492704 153.529671,23.5469305 C153.624037,23.6445906 153.674145,23.7754163 153.668637,23.9097533 L153.668637,24.4564354 C154.745361,23.661997 156.053427,23.2257292 157.401527,23.2114368 C157.772371,23.2114368 157.959831,23.3670616 157.959831,23.6783113 L157.959831,24.7397524 C157.972056,25.0270598 157.784597,25.1826847 157.413753,25.1826847 L157.430054,25.1826847 Z M169.398939,37.6526233 L168.176377,37.6526233 C167.883789,37.6526233 167.6466,37.4203713 167.6466,37.1338739 L167.6466,36.5632495 C166.429556,37.3375915 165.021658,37.7759837 163.571392,37.8321904 C161.293351,37.8321904 159.255747,36.8744991 159.255747,33.6343103 L159.255747,33.3230606 C159.255747,30.5297944 160.926582,29.1211901 165.637522,29.1211901 L167.597697,29.1211901 L167.597697,28.0836912 C167.597697,25.9049435 166.831558,25.154752 164.765428,25.154752 C163.412392,25.1542585 162.060269,25.223521 160.714671,25.3622518 L160.580189,25.3622518 C160.343827,25.3622518 160.10339,25.2864346 160.10339,24.9632137 L160.10339,24.0374455 C160.10339,23.7501381 160.29085,23.5945133 160.661693,23.5426383 C162.016612,23.3109427 163.390031,23.1987622 164.765428,23.2074464 C168.433115,23.2074464 169.928716,25.0230694 169.928716,28.0797008 L169.928716,37.1338739 C169.927662,37.273919 169.869262,37.4076933 169.766607,37.5052112 C169.663952,37.6027292 169.525627,37.6558344 169.382638,37.6526233 L169.398939,37.6526233 Z M167.597697,30.7532557 L165.637522,30.7532557 C162.434409,30.7532557 161.586766,31.4555626 161.586766,33.295128 L161.586766,33.6143584 C161.586766,35.4818564 162.487387,35.9726732 164.03189,35.9726732 C165.294205,35.9351656 166.52525,35.579175 167.605848,34.9391647 L167.597697,30.7532557 Z M177.785717,37.8321904 C176.381716,37.8397697 174.980636,37.7060547 173.604554,37.4331524 C173.258161,37.3533448 173.04625,37.19772 173.04625,36.9144029 L173.04625,36.0085866 C173.051126,35.8921502 173.105305,35.7829624 173.195775,35.7072478 C173.286244,35.6315331 173.40483,35.5961325 173.52305,35.6095486 L173.629005,35.6095486 C174.90047,35.7651734 176.832119,35.8928656 177.785717,35.8928656 C179.50953,35.8928656 180.410151,35.4539237 180.410151,34.0533002 C180.410151,33.2552242 179.933352,32.7843593 178.42145,31.9024852 L175.748113,30.3462369 C174.11803,29.3885456 173.04625,28.2712391 173.04625,26.6391735 C173.04625,23.9416764 175.112381,23.1914725 177.838695,23.1914725 C179.223254,23.1901157 180.6055,23.3022378 181.970956,23.5266768 C182.108614,23.5276058 182.239926,23.5834867 182.334538,23.6814014 C182.42915,23.7793161 182.478871,23.9107885 182.472206,24.0454263 L182.472206,24.903358 C182.485205,25.0232243 182.442171,25.1424204 182.355124,25.2276551 C182.268078,25.3128898 182.146348,25.3550277 182.023933,25.3422999 L181.946505,25.3422999 C181.017357,25.2664827 179.322071,25.1348001 177.838695,25.1348001 C176.355319,25.1348001 175.39357,25.3183576 175.39357,26.6391735 C175.39357,27.4172977 176.004851,27.9081145 177.219263,28.6104214 L179.843697,30.1387371 C182.040234,31.407678 182.753396,32.5329653 182.753396,34.0533002 C182.724869,36.7188743 180.740243,37.8321904 177.773492,37.8321904 L177.785717,37.8321904 Z M188.006339,21.1124967 L186.657445,21.1124967 C186.364857,21.1124967 186.127668,20.8802446 186.127668,20.5937472 L186.127668,18.5187494 C186.127668,18.232252 186.364857,18 186.657445,18 L188.006339,18 C188.298927,18 188.536116,18.232252 188.536116,18.5187494 L188.536116,20.5937472 C188.536154,20.7334276 188.478663,20.8672207 188.376651,20.9648567 C188.274638,21.0624926 188.136725,21.1157201 187.994113,21.1124967 L188.006339,21.1124967 Z M187.953361,37.6527616 L186.681896,37.6527616 C186.390232,37.6504514 186.154337,37.4194668 186.152119,37.1338739 L186.152119,23.9097533 C186.154337,23.6241604 186.390232,23.3931758 186.681896,23.3910039 L187.953361,23.3910039 C188.245949,23.3910039 188.483138,23.6232559 188.483138,23.9097533 L188.483138,37.1338739 C188.483176,37.2735543 188.425685,37.4073473 188.323673,37.5049833 C188.22166,37.6026193 188.083747,37.6558467 187.941135,37.6527616 L187.953361,37.6527616 Z M194.522596,37.6526233 L193.145176,37.6526233 C192.867562,37.6375937 192.654499,37.4057853 192.668377,37.1338739 L192.668377,18.6464416 C192.661668,18.5185251 192.708925,18.3935277 192.79908,18.3007226 C192.889234,18.2079175 193.014368,18.1556244 193.145176,18.1556244 L194.522596,18.1556244 C194.652668,18.1576931 194.776437,18.2108458 194.866096,18.3031407 C194.955755,18.3954356 195.003785,18.5191332 194.999396,18.6464416 L194.999396,37.1338739 C195.006021,37.2664747 194.957951,37.3961207 194.865989,37.4936728 C194.774026,37.5912249 194.645887,37.6484994 194.510371,37.6526233 L194.522596,37.6526233 Z M69.250704,34.0852233 C68.9684142,34.2117519 68.6714627,34.3042089 68.3663839,34.3605595 C68.0376193,34.4369218 67.7016576,34.4797145 67.3638827,34.4882736 C67.0400955,34.4898354 66.7218855,34.4057347 66.4428857,34.2448385 C66.1902228,34.0852233 66.1168691,33.8178678 66.1820724,33.3669548 L66.2391253,33.1155608 C66.2730538,32.6659992 66.4995389,32.2514474 66.8626321,31.9743121 C67.319184,31.7201708 67.8426686,31.6048733 68.3663839,31.6431105 L69.682676,31.6431105 L69.250704,34.0852233 Z M74.1042767,24.0135032 C73.5335113,23.5460481 72.8504584,23.2287978 72.1196504,23.0917254 C71.257429,22.9003643 70.3751604,22.8092861 69.4911413,22.8203795 C69.0510188,22.8203795 68.5945955,22.8483121 68.1014953,22.8961967 C67.6083952,22.9440813 67.1478967,22.9799947 66.6873982,23.0398504 C66.2268997,23.0997061 65.782702,23.1555714 65.3996325,23.2313887 C65.0165629,23.3072059 64.5153124,23.371052 64.2952511,23.4388884 L63.6676691,27.0302308 C64.2952511,26.9663847 65.2773762,26.8945578 66.0842674,26.8626348 C66.8911586,26.8307118 67.7143506,26.8267214 68.6068211,26.8267214 C68.8229275,26.8260887 69.0385799,26.8461358 69.250704,26.8865771 C69.4507324,26.9071036 69.6424997,26.9756348 69.8090075,27.0860961 C69.942258,27.2122337 70.0392391,27.3705043 70.0901968,27.5449898 C70.151722,27.7927745 70.151722,28.051387 70.0901968,28.2991717 L69.976091,29.0214306 L68.8146567,29.0214306 C66.5936684,29.0214306 64.820953,29.3286899 63.5168864,29.9551796 C62.2206359,30.5494707 61.328797,31.756068 61.157341,33.1474839 L61.1125137,33.4587336 C60.9509687,34.16306 60.9635431,34.8949796 61.1491906,35.593587 C61.302073,36.1272102 61.5942016,36.6126663 61.9968338,37.0021913 C62.3785404,37.3461659 62.833789,37.6024509 63.3294268,37.7523828 C63.8398193,37.9085983 64.3717951,37.9866664 64.9065323,37.9838249 C65.6461804,37.98958 66.3807545,37.8638406 67.0745429,37.6127195 C67.7383289,37.3820032 68.3749743,37.0823463 68.9735898,36.7188743 L68.7942807,37.7523828 L73.5948757,37.7523828 L75.2534853,28.3031621 C75.4600746,27.4434841 75.4474788,26.5472393 75.2168084,25.6934534 C75.017818,25.0422527 74.6264662,24.4632789 74.092051,24.0294647 M115.463562,34.0852233 C115.179607,34.2111181 114.881387,34.3035442 114.575167,34.3605595 C114.247574,34.4358033 113.913081,34.4785828 113.576741,34.4882517 C113.248469,34.4947411 112.924994,34.4103686 112.643518,34.2448385 C112.394931,34.0852233 112.305276,33.8178678 112.394931,33.3669548 L112.439758,33.1155608 C112.47963,32.66585 112.708392,32.2525342 113.071415,31.9743121 C113.527604,31.7192545 114.051378,31.6038933 114.575167,31.6431105 L115.899609,31.6431105 L115.463562,34.0852233 Z M121.437817,25.6774918 C121.232595,25.0291651 120.842338,24.4518115 120.31306,24.0135032 C119.745009,23.5490375 119.066707,23.2320411 118.340659,23.0917254 C117.470147,22.9004274 116.579793,22.8093616 115.687699,22.8203795 C115.280178,22.8203795 114.807454,22.8483121 114.310278,22.8961967 C113.813103,22.9440813 113.344454,22.9799947 112.87988,23.0398504 C112.415307,23.0997061 111.999635,23.1555714 111.600265,23.2313887 C111.200895,23.3072059 110.715945,23.371052 110.495884,23.4388884 L109.876452,27.0302308 C110.504034,26.9663847 111.506535,26.8945578 112.276749,26.8626348 C113.046964,26.8307118 113.95981,26.8267214 114.807454,26.8267214 C115.030306,26.826116 115.252716,26.8461572 115.471713,26.8865771 C115.659108,26.9075113 115.83759,26.9763172 115.989264,27.0860961 C116.138912,27.2044103 116.248338,27.3644359 116.303055,27.5449898 C116.370108,27.7920968 116.370108,28.0520647 116.303055,28.2991717 L116.180799,29.0214306 L115.015289,29.0214306 C112.790226,29.0214306 111.00936,29.3286899 109.717519,29.9551796 C108.419176,30.5478042 107.525416,31.7549164 107.353898,33.1474839 L107.304996,33.4587336 C107.153707,34.1633884 107.16066,34.891824 107.325372,35.593587 C107.484141,36.1274484 107.780214,36.6124624 108.185241,37.0021913 C108.572683,37.3489629 109.035214,37.6054263 109.53821,37.7523828 C110.047002,37.9094547 110.577774,37.9875479 111.11124,37.983952 C111.846785,37.9881341 112.577085,37.8624173 113.267025,37.6127195 C113.937214,37.3787653 114.581633,37.0793054 115.190523,36.7188743 L114.978612,37.7523828 L119.791433,37.7523828 L121.462268,28.3031621 C121.647041,27.4407678 121.630323,26.5486299 121.413366,25.6934534 M85.7267697,29.1052286 L81.7860436,29.1052286 C81.9146896,28.4630468 82.1814083,27.8550177 82.5684836,27.3215285 C82.9757593,26.8135981 83.6141126,26.5369542 84.2719205,26.5833082 C84.8872769,26.5833082 85.3355498,26.7309522 85.5393102,27.0022981 C85.7913755,27.3042172 85.9218415,27.6860487 85.9060789,28.0757104 C85.8971609,28.4172068 85.8520925,28.7568765 85.771597,29.089267 M89.3251783,24.4364835 C88.8263679,23.9203371 88.2224331,23.5125002 87.5524629,23.2393694 C86.729367,22.9569643 85.8611136,22.8218005 84.9891571,22.8403314 C83.9540429,22.8353045 82.9226112,22.9613821 81.9205255,23.2154271 C81.0292397,23.4433806 80.1964116,23.8511268 79.4754007,24.4125413 C78.7241842,24.9869758 78.1037383,25.7086737 77.6537828,26.5314332 C77.1218234,27.5298021 76.7663317,28.6091569 76.6023791,29.7237375 L76.3130394,31.3996973 C76.2645288,31.6166186 76.2318446,31.8366453 76.2152344,32.05811 C76.1889937,32.2620089 76.1740294,32.4671478 76.1704071,32.6726286 C76.1576256,33.4798333 76.3405853,34.2784929 76.7042593,35.0030108 C77.0177341,35.6549405 77.4774269,36.2291897 78.0490779,36.6829609 C78.6051832,37.1311286 79.2444808,37.4698679 79.931824,37.680556 C80.6466945,37.8925238 81.389584,38 82.1365115,37.9997864 C83.1664432,38.0041098 84.1955705,37.9427944 85.2173687,37.8162289 C86.1386692,37.6774656 87.0484714,37.4734204 87.9396076,37.2057007 L88.5386632,33.7899351 C88.2778499,33.7899351 87.9559085,33.8378197 87.5443125,33.8458004 L86.1383657,33.9415696 C85.6452656,33.9415696 85.1603158,33.977483 84.6835165,33.9894541 C84.2067172,34.0014253 83.7788203,33.9894541 83.4161268,33.9894541 C83.1066787,33.9879148 82.7976637,33.9665874 82.4910546,33.9256081 C82.2556329,33.897163 82.0268721,33.8296934 81.8145701,33.726089 C81.6263363,33.6234802 81.4710873,33.4714628 81.3662972,33.2871472 C81.2560419,33.050901 81.2043764,32.7924816 81.2155145,32.5329653 C81.216915,32.2727332 81.2455917,32.0133291 81.3010939,31.7588315 L89.6471198,31.7588315 C89.9741094,31.7555424 90.2558686,31.5325141 90.3276795,31.2201302 L90.592568,29.7117664 C90.6251697,29.4763339 90.669997,29.2409015 90.6944482,28.9895075 C90.7240489,28.7485414 90.7376614,28.5059494 90.7352003,28.2632583 C90.7311131,27.5473681 90.6128656,26.836495 90.3847324,26.1563375 C90.1517825,25.5209917 89.7915477,24.9376202 89.3251783,24.4404739 M105.744191,24.1930703 C105.408174,23.7680192 104.962139,23.4387346 104.45235,23.2393694 C103.827855,22.9967159 103.159763,22.879994 102.4881,22.8961967 C101.892285,22.9077544 101.300518,22.99494 100.72761,23.1555714 C99.8336911,23.3996586 98.9859706,23.783703 98.2172821,24.2928298 L98.3517639,23.6304267 L98.3517639,23.5466287 C98.3517639,23.2553309 98.2091317,23.1475907 97.9034911,23.1475907 L93.7223277,23.1475907 L93.571545,23.9775898 L90.9552615,37.7364213 L96.1307756,37.7364213 L98.0379729,27.4532111 C98.3560537,27.2872909 98.6905951,27.1535857 99.0363989,27.0541731 C99.4497668,26.9377919 99.877748,26.8786919 100.307864,26.8785963 C100.647793,26.8495671 100.98874,26.9219012 101.285914,27.0860961 C101.501996,27.2939397 101.602184,27.5912195 101.554877,27.8841722 C101.557631,28.0973926 101.535758,28.3102344 101.489674,28.5186427 C101.443345,28.7347645 101.409333,28.9532429 101.387794,29.173065 L99.7821619,37.7324309 L104.920999,37.7324309 L106.469578,29.3526322 C106.538857,28.9974883 106.60406,28.6702771 106.636662,28.3470563 C106.675053,28.0145558 106.692745,27.6800758 106.689639,27.3454708 C106.698181,26.7531385 106.624145,26.1624346 106.469578,25.5897035 C106.327956,25.0792395 106.08109,24.602576 105.744191,24.18908" id="Shape" fill="#1A2732"></path>
            <path d="M60.9459508,58.7001711 C53.5583521,49.239391 48.2914965,39.8814454 45.0424356,30.3918716 C41.7349865,20.7966851 40.4315995,10.6261378 41.2127439,0.508146529 C41.2286076,0.411380537 41.1678376,0.318541289 41.0727337,0.29425063 L39.8867646,0.00631384377 C39.8403473,-0.0062643546 39.790828,0 39.7491174,0.0240261539 C39.7074068,0.0479445654 39.6769276,0.0874466131 39.6643954,0.133828706 C36.1394319,8.11379107 30.6502072,15.2176029 23.5591007,21.1120803 C16.5899723,26.8099758 8.66154051,31.22386 0.144448255,34.14739 C0.0539499138,34.1785028 -0.00489004504,34.2658253 0,34.3612859 L0.144448255,35.7269289 C0.159140126,35.835283 0.253278466,35.9151232 0.362699501,35.9120311 C1.18628911,35.8873508 1.91104796,35.8873508 2.62757091,35.8873508 C9.41394926,35.8873508 15.9697225,36.5496054 26.0669311,39.7580439 C37.6713086,43.4600883 49.0080195,50.2348296 59.7558638,59.9424126 C59.794365,59.9747701 59.8417071,59.9948323 59.8917561,60 L59.9205818,60 C59.9721322,59.9987808 60.0204494,59.974649 60.0523561,59.9341859 L60.9459508,58.9510874 C60.980454,58.918459 61,58.8730892 61,58.8256292 C61,58.7781693 60.980454,58.7327995 60.9459508,58.7001711" id="Path" fill="#FFFFFF"></path>
        </g>
    </g>
</svg>